<mxfile host="app.diagrams.net" modified="2024-02-28T22:28:59.628Z" agent="Mozilla/5.0 (X11; Ubuntu; Linux x86_64; rv:123.0) Gecko/20100101 Firefox/123.0" etag="kXuX6jZhOhDTwhaxT45X" version="23.1.7" type="device">
  <diagram name="Страница — 1" id="hjIEXOWToY7e-X60Cqss">
    <mxGraphModel dx="1366" dy="752" grid="1" gridSize="10" guides="1" tooltips="1" connect="1" arrows="1" fold="1" page="1" pageScale="1" pageWidth="827" pageHeight="1169" math="0" shadow="0">
      <root>
        <mxCell id="0" />
        <mxCell id="1" parent="0" />
        <mxCell id="2fuboXM8-w0FrwnP8k95-8" value="_id&lt;br&gt;name&lt;br&gt;email&lt;br&gt;password" style="rounded=0;whiteSpace=wrap;html=1;" vertex="1" parent="1">
          <mxGeometry x="280" y="440" width="120" height="200" as="geometry" />
        </mxCell>
        <mxCell id="2fuboXM8-w0FrwnP8k95-9" value="User" style="rounded=0;whiteSpace=wrap;html=1;" vertex="1" parent="1">
          <mxGeometry x="280" y="400" width="120" height="40" as="geometry" />
        </mxCell>
        <mxCell id="2fuboXM8-w0FrwnP8k95-10" value="_id&lt;br&gt;name&lt;br&gt;boss&lt;br&gt;doers[]" style="rounded=0;whiteSpace=wrap;html=1;" vertex="1" parent="1">
          <mxGeometry x="280" y="160" width="120" height="200" as="geometry" />
        </mxCell>
        <mxCell id="2fuboXM8-w0FrwnP8k95-11" value="Project" style="rounded=0;whiteSpace=wrap;html=1;" vertex="1" parent="1">
          <mxGeometry x="280" y="120" width="120" height="40" as="geometry" />
        </mxCell>
        <mxCell id="2fuboXM8-w0FrwnP8k95-42" style="edgeStyle=orthogonalEdgeStyle;rounded=0;orthogonalLoop=1;jettySize=auto;html=1;entryX=-0.009;entryY=0.447;entryDx=0;entryDy=0;entryPerimeter=0;endArrow=none;endFill=0;" edge="1" parent="1" source="2fuboXM8-w0FrwnP8k95-12" target="2fuboXM8-w0FrwnP8k95-14">
          <mxGeometry relative="1" as="geometry">
            <Array as="points">
              <mxPoint x="660" y="220" />
              <mxPoint x="660" y="489" />
            </Array>
          </mxGeometry>
        </mxCell>
        <mxCell id="2fuboXM8-w0FrwnP8k95-12" value="_id&lt;br&gt;name&lt;br&gt;description&lt;br&gt;project&lt;br&gt;state&lt;br&gt;timestamp&lt;br&gt;deadline&lt;br&gt;doer" style="rounded=0;whiteSpace=wrap;html=1;" vertex="1" parent="1">
          <mxGeometry x="510" y="110" width="120" height="200" as="geometry" />
        </mxCell>
        <mxCell id="2fuboXM8-w0FrwnP8k95-13" value="Task" style="rounded=0;whiteSpace=wrap;html=1;" vertex="1" parent="1">
          <mxGeometry x="510" y="70" width="120" height="40" as="geometry" />
        </mxCell>
        <mxCell id="2fuboXM8-w0FrwnP8k95-14" value="_id&lt;br&gt;name&lt;br&gt;project" style="rounded=0;whiteSpace=wrap;html=1;" vertex="1" parent="1">
          <mxGeometry x="694.36" y="400" width="120" height="200" as="geometry" />
        </mxCell>
        <mxCell id="2fuboXM8-w0FrwnP8k95-15" value="State" style="rounded=0;whiteSpace=wrap;html=1;" vertex="1" parent="1">
          <mxGeometry x="694.36" y="360" width="120" height="40" as="geometry" />
        </mxCell>
        <mxCell id="2fuboXM8-w0FrwnP8k95-37" value="" style="edgeStyle=orthogonalEdgeStyle;rounded=0;orthogonalLoop=1;jettySize=auto;html=1;entryX=1;entryY=0.25;entryDx=0;entryDy=0;endArrow=none;endFill=0;" edge="1" parent="1" source="2fuboXM8-w0FrwnP8k95-16" target="2fuboXM8-w0FrwnP8k95-12">
          <mxGeometry relative="1" as="geometry">
            <Array as="points">
              <mxPoint x="680" y="220" />
              <mxPoint x="680" y="160" />
            </Array>
          </mxGeometry>
        </mxCell>
        <mxCell id="2fuboXM8-w0FrwnP8k95-16" value="_id&lt;br&gt;description&lt;br&gt;task&lt;br&gt;done" style="rounded=0;whiteSpace=wrap;html=1;" vertex="1" parent="1">
          <mxGeometry x="720" y="110" width="120" height="200" as="geometry" />
        </mxCell>
        <mxCell id="2fuboXM8-w0FrwnP8k95-17" value="Subtask" style="rounded=0;whiteSpace=wrap;html=1;" vertex="1" parent="1">
          <mxGeometry x="720" y="70" width="120" height="40" as="geometry" />
        </mxCell>
        <mxCell id="2fuboXM8-w0FrwnP8k95-18" style="edgeStyle=orthogonalEdgeStyle;rounded=0;orthogonalLoop=1;jettySize=auto;html=1;entryX=-0.008;entryY=0.385;entryDx=0;entryDy=0;entryPerimeter=0;endArrow=none;endFill=0;" edge="1" parent="1" source="2fuboXM8-w0FrwnP8k95-19" target="2fuboXM8-w0FrwnP8k95-8">
          <mxGeometry relative="1" as="geometry">
            <mxPoint x="279" y="270" as="sourcePoint" />
            <Array as="points">
              <mxPoint x="240" y="270" />
              <mxPoint x="240" y="517" />
            </Array>
          </mxGeometry>
        </mxCell>
        <mxCell id="2fuboXM8-w0FrwnP8k95-21" value="" style="edgeStyle=orthogonalEdgeStyle;rounded=0;orthogonalLoop=1;jettySize=auto;html=1;entryX=-0.008;entryY=0.385;entryDx=0;entryDy=0;entryPerimeter=0;endArrow=none;endFill=0;" edge="1" parent="1" target="2fuboXM8-w0FrwnP8k95-19">
          <mxGeometry relative="1" as="geometry">
            <mxPoint x="279" y="270" as="sourcePoint" />
            <mxPoint x="279" y="517" as="targetPoint" />
            <Array as="points">
              <mxPoint x="280" y="270" />
            </Array>
          </mxGeometry>
        </mxCell>
        <mxCell id="2fuboXM8-w0FrwnP8k95-19" value="" style="triangle;whiteSpace=wrap;html=1;rotation=-180;fillColor=none;" vertex="1" parent="1">
          <mxGeometry x="260" y="260" width="20" height="20" as="geometry" />
        </mxCell>
        <mxCell id="2fuboXM8-w0FrwnP8k95-23" value="" style="endArrow=none;html=1;rounded=0;" edge="1" parent="1">
          <mxGeometry width="50" height="50" relative="1" as="geometry">
            <mxPoint x="269.88" y="527" as="sourcePoint" />
            <mxPoint x="269.88" y="507" as="targetPoint" />
          </mxGeometry>
        </mxCell>
        <mxCell id="2fuboXM8-w0FrwnP8k95-24" value="" style="endArrow=none;html=1;rounded=0;" edge="1" parent="1">
          <mxGeometry width="50" height="50" relative="1" as="geometry">
            <mxPoint x="259.88" y="527" as="sourcePoint" />
            <mxPoint x="259.88" y="507" as="targetPoint" />
          </mxGeometry>
        </mxCell>
        <mxCell id="2fuboXM8-w0FrwnP8k95-25" style="edgeStyle=orthogonalEdgeStyle;rounded=0;orthogonalLoop=1;jettySize=auto;html=1;entryX=1;entryY=0.378;entryDx=0;entryDy=0;entryPerimeter=0;endArrow=none;endFill=0;" edge="1" parent="1" source="2fuboXM8-w0FrwnP8k95-10" target="2fuboXM8-w0FrwnP8k95-8">
          <mxGeometry relative="1" as="geometry">
            <Array as="points">
              <mxPoint x="440" y="280" />
              <mxPoint x="440" y="516" />
            </Array>
          </mxGeometry>
        </mxCell>
        <mxCell id="2fuboXM8-w0FrwnP8k95-26" value="" style="triangle;whiteSpace=wrap;html=1;rotation=0;fillColor=none;" vertex="1" parent="1">
          <mxGeometry x="400" y="270" width="20" height="20" as="geometry" />
        </mxCell>
        <mxCell id="2fuboXM8-w0FrwnP8k95-29" value="" style="endArrow=none;html=1;rounded=0;" edge="1" parent="1">
          <mxGeometry width="50" height="50" relative="1" as="geometry">
            <mxPoint x="409.83" y="527" as="sourcePoint" />
            <mxPoint x="409.83" y="507" as="targetPoint" />
          </mxGeometry>
        </mxCell>
        <mxCell id="2fuboXM8-w0FrwnP8k95-30" value="" style="endArrow=none;html=1;rounded=0;" edge="1" parent="1">
          <mxGeometry width="50" height="50" relative="1" as="geometry">
            <mxPoint x="419.83" y="527" as="sourcePoint" />
            <mxPoint x="419.83" y="507" as="targetPoint" />
          </mxGeometry>
        </mxCell>
        <mxCell id="2fuboXM8-w0FrwnP8k95-31" style="edgeStyle=orthogonalEdgeStyle;rounded=0;orthogonalLoop=1;jettySize=auto;html=1;entryX=1.006;entryY=0.379;entryDx=0;entryDy=0;entryPerimeter=0;endArrow=none;endFill=0;" edge="1" parent="1" source="2fuboXM8-w0FrwnP8k95-12" target="2fuboXM8-w0FrwnP8k95-10">
          <mxGeometry relative="1" as="geometry">
            <Array as="points">
              <mxPoint x="455" y="210" />
              <mxPoint x="455" y="236" />
            </Array>
          </mxGeometry>
        </mxCell>
        <mxCell id="2fuboXM8-w0FrwnP8k95-32" value="" style="endArrow=none;html=1;rounded=0;" edge="1" parent="1">
          <mxGeometry width="50" height="50" relative="1" as="geometry">
            <mxPoint x="409.82" y="247" as="sourcePoint" />
            <mxPoint x="409.82" y="227" as="targetPoint" />
          </mxGeometry>
        </mxCell>
        <mxCell id="2fuboXM8-w0FrwnP8k95-33" value="" style="endArrow=none;html=1;rounded=0;" edge="1" parent="1">
          <mxGeometry width="50" height="50" relative="1" as="geometry">
            <mxPoint x="419.82" y="247" as="sourcePoint" />
            <mxPoint x="419.82" y="227" as="targetPoint" />
          </mxGeometry>
        </mxCell>
        <mxCell id="2fuboXM8-w0FrwnP8k95-35" value="" style="triangle;whiteSpace=wrap;html=1;rotation=-180;fillColor=none;" vertex="1" parent="1">
          <mxGeometry x="490" y="200" width="20" height="20" as="geometry" />
        </mxCell>
        <mxCell id="2fuboXM8-w0FrwnP8k95-39" value="" style="endArrow=none;html=1;rounded=0;" edge="1" parent="1">
          <mxGeometry width="50" height="50" relative="1" as="geometry">
            <mxPoint x="640" y="170" as="sourcePoint" />
            <mxPoint x="640" y="150" as="targetPoint" />
          </mxGeometry>
        </mxCell>
        <mxCell id="2fuboXM8-w0FrwnP8k95-40" value="" style="endArrow=none;html=1;rounded=0;" edge="1" parent="1">
          <mxGeometry width="50" height="50" relative="1" as="geometry">
            <mxPoint x="650" y="170" as="sourcePoint" />
            <mxPoint x="650" y="150" as="targetPoint" />
          </mxGeometry>
        </mxCell>
        <mxCell id="2fuboXM8-w0FrwnP8k95-43" value="" style="endArrow=none;html=1;rounded=0;" edge="1" parent="1">
          <mxGeometry width="50" height="50" relative="1" as="geometry">
            <mxPoint x="680" y="500" as="sourcePoint" />
            <mxPoint x="680" y="480" as="targetPoint" />
          </mxGeometry>
        </mxCell>
        <mxCell id="2fuboXM8-w0FrwnP8k95-44" value="" style="endArrow=none;html=1;rounded=0;" edge="1" parent="1">
          <mxGeometry width="50" height="50" relative="1" as="geometry">
            <mxPoint x="690" y="500" as="sourcePoint" />
            <mxPoint x="690" y="480" as="targetPoint" />
          </mxGeometry>
        </mxCell>
        <mxCell id="2fuboXM8-w0FrwnP8k95-45" value="" style="triangle;whiteSpace=wrap;html=1;rotation=0;fillColor=none;" vertex="1" parent="1">
          <mxGeometry x="630" y="210" width="20" height="20" as="geometry" />
        </mxCell>
        <mxCell id="2fuboXM8-w0FrwnP8k95-46" value="" style="endArrow=none;html=1;rounded=0;" edge="1" parent="1">
          <mxGeometry width="50" height="50" relative="1" as="geometry">
            <mxPoint x="650" y="230" as="sourcePoint" />
            <mxPoint x="650" y="210" as="targetPoint" />
          </mxGeometry>
        </mxCell>
        <mxCell id="2fuboXM8-w0FrwnP8k95-47" value="" style="ellipse;whiteSpace=wrap;html=1;aspect=fixed;fillColor=none;" vertex="1" parent="1">
          <mxGeometry x="250" y="265" width="10" height="10" as="geometry" />
        </mxCell>
        <mxCell id="2fuboXM8-w0FrwnP8k95-49" value="" style="ellipse;whiteSpace=wrap;html=1;aspect=fixed;fillColor=none;" vertex="1" parent="1">
          <mxGeometry x="419" y="275" width="10" height="10" as="geometry" />
        </mxCell>
        <mxCell id="2fuboXM8-w0FrwnP8k95-51" value="" style="ellipse;whiteSpace=wrap;html=1;aspect=fixed;fillColor=none;" vertex="1" parent="1">
          <mxGeometry x="481" y="205" width="10" height="10" as="geometry" />
        </mxCell>
        <mxCell id="2fuboXM8-w0FrwnP8k95-54" value="" style="triangle;whiteSpace=wrap;html=1;rotation=-180;fillColor=none;" vertex="1" parent="1">
          <mxGeometry x="700" y="210" width="20" height="20" as="geometry" />
        </mxCell>
        <mxCell id="2fuboXM8-w0FrwnP8k95-55" value="" style="ellipse;whiteSpace=wrap;html=1;aspect=fixed;fillColor=none;" vertex="1" parent="1">
          <mxGeometry x="691" y="215" width="10" height="10" as="geometry" />
        </mxCell>
        <mxCell id="2fuboXM8-w0FrwnP8k95-56" style="edgeStyle=orthogonalEdgeStyle;rounded=0;orthogonalLoop=1;jettySize=auto;html=1;endArrow=none;endFill=0;" edge="1" parent="1" source="2fuboXM8-w0FrwnP8k95-14">
          <mxGeometry relative="1" as="geometry">
            <mxPoint x="280" y="240" as="targetPoint" />
            <Array as="points">
              <mxPoint x="640" y="520" />
              <mxPoint x="640" y="680" />
              <mxPoint x="200" y="680" />
              <mxPoint x="200" y="240" />
            </Array>
          </mxGeometry>
        </mxCell>
        <mxCell id="2fuboXM8-w0FrwnP8k95-57" value="" style="endArrow=none;html=1;rounded=0;" edge="1" parent="1">
          <mxGeometry width="50" height="50" relative="1" as="geometry">
            <mxPoint x="264.78" y="250" as="sourcePoint" />
            <mxPoint x="264.78" y="230" as="targetPoint" />
          </mxGeometry>
        </mxCell>
        <mxCell id="2fuboXM8-w0FrwnP8k95-58" value="" style="endArrow=none;html=1;rounded=0;" edge="1" parent="1">
          <mxGeometry width="50" height="50" relative="1" as="geometry">
            <mxPoint x="274.78" y="250" as="sourcePoint" />
            <mxPoint x="274.78" y="230" as="targetPoint" />
          </mxGeometry>
        </mxCell>
        <mxCell id="2fuboXM8-w0FrwnP8k95-61" value="" style="triangle;whiteSpace=wrap;html=1;rotation=-180;fillColor=none;" vertex="1" parent="1">
          <mxGeometry x="674.36" y="510" width="20" height="20" as="geometry" />
        </mxCell>
        <mxCell id="2fuboXM8-w0FrwnP8k95-62" value="" style="ellipse;whiteSpace=wrap;html=1;aspect=fixed;fillColor=none;" vertex="1" parent="1">
          <mxGeometry x="665.36" y="515" width="10" height="10" as="geometry" />
        </mxCell>
      </root>
    </mxGraphModel>
  </diagram>
</mxfile>
